<svg width="20" height="21" viewBox="0 0 20 21" fill="none" xmlns="http://www.w3.org/2000/svg">
<path d="M10 19.3154C8.95833 19.3154 7.98264 19.1175 7.07292 18.7217C6.16319 18.3258 5.37153 17.7911 4.69792 17.1175C4.02431 16.4439 3.48958 15.6522 3.09375 14.7425C2.69792 13.8328 2.5 12.8571 2.5 11.8154C2.5 10.7738 2.69792 9.79807 3.09375 8.88835C3.48958 7.97862 4.02431 7.18696 4.69792 6.51335C5.37153 5.83973 6.16319 5.30501 7.07292 4.90918C7.98264 4.51335 8.95833 4.31543 10 4.31543C11.0417 4.31543 12.0174 4.51335 12.9271 4.90918C13.8368 5.30501 14.6285 5.83973 15.3021 6.51335C15.9757 7.18696 16.5104 7.97862 16.9063 8.88835C17.3021 9.79807 17.5 10.7738 17.5 11.8154C17.5 12.8571 17.3021 13.8328 16.9063 14.7425C16.5104 15.6522 15.9757 16.4439 15.3021 17.1175C14.6285 17.7911 13.8368 18.3258 12.9271 18.7217C12.0174 19.1175 11.0417 19.3154 10 19.3154ZM12.3333 15.3154L13.5 14.1488L10.8333 11.4821V7.64876H9.16667V12.1488L12.3333 15.3154ZM4.66667 2.94043L5.83333 4.1071L2.29167 7.64876L1.125 6.4821L4.66667 2.94043ZM15.3333 2.94043L18.875 6.4821L17.7083 7.64876L14.1667 4.1071L15.3333 2.94043Z" fill="white"/>
</svg>
