<svg width="30" height="31" viewBox="0 0 30 31" fill="none" xmlns="http://www.w3.org/2000/svg">
<path d="M15 25.9824C14.3125 25.9824 13.724 25.7376 13.2344 25.248C12.7448 24.7585 12.5 24.1699 12.5 23.4824C12.5 22.7949 12.7448 22.2064 13.2344 21.7168C13.724 21.2272 14.3125 20.9824 15 20.9824C15.6875 20.9824 16.276 21.2272 16.7656 21.7168C17.2552 22.2064 17.5 22.7949 17.5 23.4824C17.5 24.1699 17.2552 24.7585 16.7656 25.248C16.276 25.7376 15.6875 25.9824 15 25.9824ZM15 18.4824C14.3125 18.4824 13.724 18.2376 13.2344 17.748C12.7448 17.2585 12.5 16.6699 12.5 15.9824C12.5 15.2949 12.7448 14.7064 13.2344 14.2168C13.724 13.7272 14.3125 13.4824 15 13.4824C15.6875 13.4824 16.276 13.7272 16.7656 14.2168C17.2552 14.7064 17.5 15.2949 17.5 15.9824C17.5 16.6699 17.2552 17.2585 16.7656 17.748C16.276 18.2376 15.6875 18.4824 15 18.4824ZM15 10.9824C14.3125 10.9824 13.724 10.7376 13.2344 10.248C12.7448 9.75846 12.5 9.16992 12.5 8.48242C12.5 7.79492 12.7448 7.20638 13.2344 6.7168C13.724 6.22721 14.3125 5.98242 15 5.98242C15.6875 5.98242 16.276 6.22721 16.7656 6.7168C17.2552 7.20638 17.5 7.79492 17.5 8.48242C17.5 9.16992 17.2552 9.75846 16.7656 10.248C16.276 10.7376 15.6875 10.9824 15 10.9824Z" fill="black"/>
</svg>
